<?xml version="1.0" standalone="no"?>
<!DOCTYPE svg PUBLIC "-//W3C//DTD SVG 20010904//EN"
 "http://www.w3.org/TR/2001/REC-SVG-20010904/DTD/svg10.dtd">
<svg version="1.0" xmlns="http://www.w3.org/2000/svg"
 width="500.000000pt" height="500.000000pt" viewBox="0 0 500.000000 500.000000"
 preserveAspectRatio="xMidYMid meet">
<metadata>
Created by potrace 1.16, written by Peter Selinger 2001-2019
</metadata>
<g transform="translate(0.000000,500.000000) scale(0.100000,-0.100000)"
fill="#000000" stroke="none">
<path d="M1780 2893 c-80 -2 -155 -5 -167 -8 -31 -7 -53 -55 -53 -115 0 -47
-1 -50 -22 -45 -13 3 -91 12 -174 20 -124 13 -158 13 -189 3 -70 -24 -73 -73
-5 -91 32 -8 321 7 368 19 20 6 22 3 22 -30 0 -20 6 -52 14 -71 29 -68 -20
-65 946 -65 956 0 913 -3 945 60 8 16 15 45 15 65 l0 36 113 -8 c181 -13 258
-9 273 12 17 23 17 27 1 49 -23 31 -82 36 -231 21 -76 -8 -142 -15 -147 -15
-5 0 -9 25 -9 55 0 45 -5 60 -23 79 -22 22 -31 23 -252 29 -211 6 -1088 6
-1425 0z"/>
<path d="M2320 2050 c0 -123 1 -130 20 -130 18 0 20 7 20 65 l0 65 60 0 60 0
0 -65 c0 -58 2 -65 20 -65 19 0 20 7 20 130 0 123 -1 130 -20 130 -18 0 -20
-7 -20 -55 l0 -55 -60 0 -60 0 0 55 c0 48 -2 55 -20 55 -19 0 -20 -7 -20 -130z"/>
<path d="M2590 2050 l0 -130 80 0 c59 0 80 3 80 13 0 10 -15 12 -60 9 l-60 -4
0 56 0 56 46 0 c27 0 43 4 39 10 -3 6 -24 10 -46 10 l-39 0 0 51 0 52 60 -7
c40 -5 60 -3 60 4 0 6 -31 10 -80 10 l-80 0 0 -130z"/>
</g>
</svg>
